<?xml version="1.0" encoding="utf-8"?>
<!-- Generator: Adobe Illustrator 17.0.0, SVG Export Plug-In . SVG Version: 6.00 Build 0)  -->
<!DOCTYPE svg PUBLIC "-//W3C//DTD SVG 1.1//EN" "http://www.w3.org/Graphics/SVG/1.1/DTD/svg11.dtd">
<svg version="1.1" id="Layer_1" xmlns="http://www.w3.org/2000/svg" xmlns:xlink="http://www.w3.org/1999/xlink" x="0px" y="0px"
	 width="566.93px" height="566.93px" viewBox="0 0 566.93 566.93" enable-background="new 0 0 566.93 566.93" xml:space="preserve">
<g>
	<path fill="#333333" d="M302.223,266.569v-23.901h23.901v23.901L302.223,266.569L302.223,266.569z M326.124,242.668v-71.703h47.802
		v23.901h-23.901v47.802H326.124z M326.124,338.272v-71.703h23.901v47.802h23.901v23.901L326.124,338.272L326.124,338.272z"/>
	<path fill="#333333" d="M229.013,242.668v-47.802h-23.901v-23.901h47.802v71.703H229.013L229.013,242.668z M205.112,338.272
		v-23.901h23.901v-47.802h23.901v71.703H205.112z M252.914,266.569v-23.901h23.901v23.901L252.914,266.569L252.914,266.569z"/>
</g>
<g>
	<g>
		<path fill="#333333" d="M220.427,418.867c-2.587,0.301-3.878,0.46-6.46,0.79c-0.015-4.205-0.022-6.307-0.037-10.514
			c8.109-1.189,16.222-2.218,24.37-3.09c0.015,4.403,0.022,6.606,0.037,11.009c-2.593,0.22-3.889,0.338-6.48,0.589
			c0.055,15.483,0.109,30.965,0.161,46.448c2.589-0.046,3.882-0.068,6.471-0.107c0.015,4.403,0.022,6.606,0.037,11.009
			c-8.122-0.007-16.241-0.009-24.363-0.009c-0.015-4.205-0.022-6.307-0.037-10.514c2.587-0.063,3.88-0.094,6.466-0.15
			c-0.02-5.55-0.041-11.101-0.061-16.649c-7.694,0.451-15.384,0.966-23.07,1.542c0.013,5.239,0.028,10.477,0.041,15.716
			c2.584-0.079,3.878-0.118,6.462-0.19c0.013,4.1,0.02,6.15,0.033,10.25c-8.148,0.007-16.296,0.017-24.444,0.03
			c0-3.793,0-5.688,0-9.483c2.615-0.098,3.924-0.144,6.541-0.235c-0.017-13.795-0.033-27.587-0.048-41.379
			c-2.6,0.462-3.897,0.702-6.493,1.195c0-3.793,0-5.688,0-9.481c8.054-1.775,16.126-3.387,24.243-4.844
			c0.013,4.1,0.02,6.15,0.031,10.25c-2.578,0.375-3.865,0.571-6.438,0.977c0.013,5.062,0.026,10.124,0.039,15.186
			c7.677-0.837,15.36-1.59,23.055-2.253C220.466,429.593,220.446,424.23,220.427,418.867z"/>
		<path fill="#333333" d="M278.35,467.868c-2.883,5.348-8.479,8.521-14.444,8.558c-13.851,0.089-22.839-14.545-23.105-27.004
			c-0.281-13.166,9.326-28.274,23.511-28.819c6.026-0.231,11.271,3.409,14.013,8.65c-0.002-3.042-0.002-4.562-0.004-7.603
			c5.374-0.074,10.748-0.081,16.119-0.022c-0.004,4.567-0.004,6.85-0.009,11.419c-2.259-0.022-3.389-0.028-5.649-0.035
			c-0.002,10.22-0.004,20.442-0.007,30.664c2.253,0.007,3.38,0.011,5.636,0.022c-0.004,4.567-0.004,6.853-0.009,11.419
			c-5.35-0.017-10.7-0.033-16.047-0.048C278.353,472.189,278.353,470.749,278.35,467.868z M278.507,448.059
			c-0.009-7.212-5.441-16.076-13.583-15.651c-8.115,0.423-13.537,9.267-13.524,16.686c0.015,7.162,5.688,15.345,13.411,15.511
			C273.249,464.787,278.516,455.485,278.507,448.059z"/>
		<path fill="#333333" d="M342.361,458.002c-2.617,9.943-11.825,18.438-22.331,18.597c-14.617,0.22-23.681-15.459-23.668-28.208
			c0.013-11.936,8.401-28.588,22.717-27.602c5.123,0.353,9.801,3.208,12.87,7.326c0.007-1.991,0.009-2.988,0.015-4.979
			c3.537,0.244,5.302,0.38,8.835,0.674c-0.02,5.721-0.041,11.443-0.061,17.166c-3.834-0.218-5.751-0.318-9.587-0.499
			c-1.256-2.209-2.938-4.085-4.783-5.42c-1.9-1.376-4.124-2.168-6.395-2.257c-8.22-0.325-13.328,8.49-13.341,15.722
			c-0.013,7.391,5.417,16.119,13.509,16.215c4.615,0.055,8.92-2.794,10.783-7.066C335.502,457.788,337.788,457.853,342.361,458.002z
			"/>
		<path fill="#333333" d="M373.239,436.535c-1.843-0.203-2.763-0.301-4.606-0.493c0.011-3.723,0.017-5.583,0.028-9.306
			c7.337,0.94,14.663,1.985,21.962,3.182c-0.002,3.9-0.002,5.849-0.004,9.751c-2.17-0.281-3.254-0.417-5.426-0.68
			c-4.194,3.71-8.298,7.52-12.327,11.411c4.29,5.143,8.632,10.231,13.046,15.267c2.818,0.107,4.227,0.161,7.042,0.277
			c0,3.869,0,5.803,0,9.672c-8.148-0.052-16.296-0.105-24.444-0.153c0.013-4.161,0.02-6.24,0.031-10.401
			c1.511,0.048,2.266,0.072,3.777,0.122c-3.59-4.397-7.125-8.839-10.617-13.315c-0.015,4.327-0.028,8.654-0.044,12.983
			c1.612,0.048,2.419,0.072,4.03,0.12c-0.013,4.19-0.02,6.283-0.033,10.475c-6.722-0.037-13.441-0.076-20.163-0.109
			c0.015-4.364,0.024-6.545,0.039-10.909c2.351,0.055,3.529,0.085,5.88,0.144c0.057-15.341,0.111-30.684,0.166-46.025
			c-2.351-0.262-3.527-0.388-5.88-0.626c0.015-4.364,0.024-6.545,0.039-10.909c5.383,0.643,10.752,1.378,16.111,2.201
			c-0.044,12.953-0.089,25.903-0.133,38.856C365.492,444.155,369.329,440.308,373.239,436.535z"/>
	</g>
</g>
<g>
	<path fill="#333333" d="M234.472,384.622h-10.761c-0.783,0-2.142,0-1.88-1.566c0.262-1.62,1.566-1.62,2.403-1.62h1.149
		l4.283-25.541h-1.149c-0.783,0-2.142,0-1.88-1.568c0.262-1.618,1.566-1.618,2.403-1.618h10.761c6.946,0,10.133,7.834,8.724,16.191
		C247.111,377.309,241.314,384.622,234.472,384.622z M238.284,355.894h-5.014l-4.283,25.541h5.014
		c5.797,0,9.923-6.425,10.916-12.536C245.961,362.841,244.186,355.894,238.284,355.894z"/>
	<path fill="#333333" d="M271.609,384.622h-18.856c-0.731,0-2.194,0-1.932-1.566c0.262-1.62,1.516-1.62,2.977-1.62l3.082-18.281
		c-1.463,0-2.715,0-2.454-1.62c0.262-1.566,1.723-1.566,2.454-1.566h17.759c1.775,0,2.089,0.471,1.828,2.194l-0.419,2.558
		c-0.157,0.94-0.366,2.194-2.194,2.194c-1.775,0-1.566-1.306-1.409-2.194l0.262-1.566h-12.222l-1.202,7.103h6.477
		c0.157-0.992,0.366-2.246,2.194-2.246c1.775,0,1.566,1.306,1.411,2.194l-0.523,3.291c-0.157,0.888-0.366,2.194-2.142,2.194
		c-1.828,0-1.62-1.252-1.463-2.246h-6.477l-1.359,7.991h13.319l0.366-2.194c0.157-0.94,0.366-2.194,2.194-2.194
		c1.775,0,1.566,1.306,1.409,2.194l-0.521,3.186C273.856,384.203,273.332,384.622,271.609,384.622z"/>
	<path fill="#333333" d="M302.426,363.155l-10.028,19.796c-0.992,1.985-1.932,1.985-3.396,1.985c-1.045,0-2.351,0-2.611-1.566
		l-0.469-2.558l-2.977-17.655c-0.992,0-2.403,0-2.142-1.62c0.262-1.566,1.775-1.566,2.56-1.566h3.498c0.835,0,2.299,0,2.037,1.62
		c-0.157,0.888-1.045,1.62-2.194,1.62l3.029,17.759l8.879-17.812c-1.88,0-1.671-1.306-1.62-1.568c0.262-1.62,1.723-1.62,2.56-1.62
		h3.498c0.783,0,2.299,0,2.037,1.566C304.829,363.155,303.42,363.155,302.426,363.155z"/>
	<path fill="#333333" d="M353.388,355.894h-30.224l-4.283,25.541h2.715c0.835,0,2.089,0,1.828,1.62
		c-0.262,1.566-1.566,1.566-2.351,1.566h-9.036c-0.835,0-2.089,0-1.828-1.62c0.262-1.568,1.566-1.568,2.351-1.568h2.715
		l4.283-25.541h-64.894l0.236-1.045c0.314-1.723,0.783-2.142,2.508-2.142h98.016c1.775,0,1.985,0.521,1.723,2.142l-0.172,1.045
		L353.388,355.894z"/>
	<path fill="#333333" d="M343.901,385.038c-9.454,0-10.237-1.202-8.357-12.745c1.932-11.596,3.186-12.745,12.588-12.745
		c9.402,0,10.185,1.202,8.253,12.745C354.505,383.837,353.303,385.038,343.901,385.038z M347.558,362.736
		c-6.163,0-6.946,0.888-8.305,9.193c-1.516,9.088-0.94,9.923,5.171,9.923c6.059,0,6.948-0.888,8.462-9.923
		C354.243,363.571,353.774,362.736,347.558,362.736z"/>
</g>
<path fill="#414141" d="M287.22,137.224L287.22,137.224l130.85,27.231v153.488c-0.632,4.674-6.368,41.307-34.088,75.251
	c-1.354,1.66-2.8,3.302-4.327,4.929c8.213,1.134,16.407,2.423,24.575,3.858c30.147-39.591,34.928-80.429,35.124-82.213l0.063-0.578
	V147.095l-152.332-31.704l0,0l0.135,0.028L287.22,137.224z"/>
<path fill="#414141" d="M287.971,510.36v16.226l-0.033,0.007l1.756-0.404c17.186-3.956,33.925-10.364,48.406-18.531
	c6.595-3.721,12.671-7.769,18.093-12.039c-7.95-1.143-15.925-2.089-23.921-2.833C319.348,500.327,304.055,506.473,287.971,510.36z"
	/>
<path fill="#939393" d="M287.157,458.377L287.157,458.377c0.022-0.004,0.044-0.011,0.063-0.015l0,0
	C287.201,458.366,287.179,458.37,287.157,458.377z"/>
<path fill="#4F4E4E" d="M287.971,510.36c-0.015,0.004-0.031,0.009-0.048,0.011l0,0l0,0c-15.541-3.773-29.373-9.744-41.397-17.84
	c-7.52,0.654-15.025,1.485-22.507,2.495c3.904,3.489,8.017,6.735,12.34,9.725c0.757,0.523,1.518,1.038,2.288,1.546
	c13.834,9.14,29.711,15.797,47.503,19.892l1.108,0.255l0.665,0.153l0.017-0.004l0.033-0.007L287.971,510.36L287.971,510.36z"/>
<path fill="#4F4E4E" d="M201.978,397.173c-1.143-1.306-2.27-2.628-3.374-3.978c-23.253-28.474-31.076-59.193-33.34-70.872
	c-0.041-0.216-0.083-0.425-0.12-0.628c-0.342-1.828-0.539-3.117-0.628-3.766V164.346l30.675-6.781l92.027-20.344v-21.805
	l-0.135-0.028l-89.947,19.882l-53.967,11.93v171.987l0.048,0.434l0.015,0.144c0.161,1.479,3.47,29.768,21.746,61.945
	c0.718,1.261,1.457,2.53,2.22,3.801c1.527,2.545,3.149,5.108,4.872,7.679c1.686,2.515,3.47,5.038,5.352,7.557
	C185.588,399.406,193.773,398.218,201.978,397.173z"/>
<g>
	<path fill="#414141" d="M1039.239,72.249c0,0,0.048,2.198,1.123,4.251c1.319,2.493,3.516,3.712,6.741,3.712
		c3.226,0,5.422-1.221,6.741-3.712c1.075-2.052,1.123-4.251,1.123-4.299v-14.46h-15.729
		C1039.239,57.742,1039.239,72.249,1039.239,72.249z"/>
	<polygon fill="#414141" points="1120.573,76.45 1127.46,76.45 1124.04,66.193 	"/>
	<path fill="#414141" d="M1094.578,38.785H950.662v88.053l144.049-31.307l152.197,31.89V38.787h-152.33V38.785z M1025.316,85.684
		c0,0.194-0.196,0.39-0.489,0.39h-5.568c-0.294,0-0.489-0.196-0.489-0.39V72.153h-12.944v13.531c0,0.194-0.196,0.39-0.489,0.39
		h-5.568c-0.292,0-0.489-0.196-0.489-0.39V52.272c0-0.196,0.196-0.39,0.489-0.39h5.568c0.294,0,0.489,0.194,0.489,0.39v13.483
		h12.944V52.272c0-0.196,0.196-0.39,0.489-0.39h5.568c0.292,0,0.489,0.194,0.489,0.39V85.684z M1061.465,72.249
		c0,0.342-0.05,3.664-1.71,6.986c-2.393,4.689-6.839,7.326-12.652,7.326s-10.307-2.589-12.652-7.326
		c-1.662-3.322-1.71-6.643-1.71-6.986V52.27c0-0.196,0.196-0.39,0.441-0.39h27.794c0.294,0,0.489,0.194,0.489,0.39
		C1061.465,52.27,1061.465,72.249,1061.465,72.249z M1106.063,85.684c0,0.194-0.194,0.39-0.489,0.39h-5.568
		c-0.292,0-0.489-0.196-0.489-0.39V66.926l-8.695,17.537c-0.048,0.096-0.294,0.244-0.39,0.244h-5.276
		c-0.146,0-0.39-0.146-0.441-0.244l-9.28-17.975v19.197c0,0.194-0.196,0.39-0.489,0.39h-5.618c-0.292,0-0.438-0.196-0.438-0.39
		v-33.46c0-0.196,0.146-0.39,0.438-0.39h5.716c0.146,0,0.39,0.146,0.441,0.244l12.261,25.107l11.723-25.107
		c0.05-0.096,0.294-0.244,0.441-0.244h5.666c0.294,0,0.489,0.196,0.489,0.39v33.46H1106.063z M1137.425,86.074h-6.059
		c-0.146,0-0.342-0.098-0.39-0.244l-1.418-3.616h-11.088l-1.319,3.616c-0.048,0.146-0.244,0.244-0.441,0.244h-6.009
		c-0.39,0-0.587-0.244-0.441-0.537l13.337-34.389c0.146-0.342,0.733-0.342,0.879,0l13.334,34.389
		C1137.961,85.83,1137.767,86.074,1137.425,86.074z M1170.252,85.684c0,0.194-0.196,0.39-0.489,0.39h-5.618
		c-0.098,0-0.342-0.048-0.39-0.146l-15.729-22.518v22.276c0,0.194-0.196,0.39-0.489,0.39h-5.618c-0.244,0-0.441-0.196-0.441-0.39
		V52.274c0-0.196,0.196-0.39,0.441-0.39h5.666c0.098,0,0.342,0.048,0.39,0.146l15.777,22.518V52.274c0-0.196,0.196-0.39,0.489-0.39
		h5.52c0.292,0,0.489,0.194,0.489,0.39v33.41L1170.252,85.684L1170.252,85.684z M1187.397,86.561
		c-6.056-0.146-10.844-3.664-10.942-10.111c0-0.196,0.196-0.39,0.489-0.39h5.568c0.244,0,0.489,0.196,0.489,0.39
		c0.098,2.491,2.148,3.76,4.397,3.76c2.345,0,4.397-1.564,4.397-3.906c0-2.589-2.395-4.153-4.397-4.251
		c-0.292,0-2.687,0-5.228-1.171c-3.664-1.71-5.714-4.787-5.714-8.89c0-6.595,5.324-10.599,10.942-10.599
		c6.009,0,10.698,4.054,10.796,10.015c0,0.146-0.196,0.342-0.489,0.342h-5.52c-0.244,0-0.489-0.196-0.489-0.342
		c-0.098-2.491-2.002-3.664-4.299-3.664c-2.392,0-4.397,1.418-4.397,4.251c0,2.541,2.148,3.86,4.397,3.86
		c0.244,0,2.687,0,5.178,1.171c3.714,1.71,5.716,5.178,5.716,9.282C1198.291,82.899,1193.015,86.561,1187.397,86.561z"/>
</g>
<g>
	<polygon fill="#414141" points="382.752,75.977 389.267,75.977 386.032,66.271 	"/>
	<polygon fill="#414141" points="243.32,75.977 249.837,75.977 246.602,66.271 	"/>
	<path fill="#414141" d="M269.293,58.461v20.843c3.882,0.185,12.154-0.554,12.154-10.49
		C281.447,60.265,276.272,58.093,269.293,58.461z"/>
	<polygon fill="#414141" points="184.858,75.977 191.374,75.977 188.14,66.271 	"/>
	<path fill="#414141" d="M287.085,38.785H143.171v88.053l144.051-31.307l152.197,31.89V38.787H287.085L287.085,38.785z
		 M200.803,85.082h-5.732c-0.137,0-0.323-0.092-0.369-0.231l-1.341-3.42h-10.49l-1.247,3.42c-0.046,0.137-0.231,0.231-0.417,0.231
		h-5.684c-0.369,0-0.554-0.231-0.417-0.508l12.617-32.535c0.137-0.323,0.694-0.323,0.831,0l12.617,32.535
		C201.311,84.851,201.125,85.082,200.803,85.082z M219.796,79.582c2.726,0,5.221-1.11,7.071-2.957c0.183-0.137,0.462-0.137,0.648,0
		l3.651,3.697c0.185,0.137,0.185,0.417,0,0.554c-2.866,2.866-6.885,4.667-11.367,4.667c-8.872,0-16.176-6.423-16.176-16.499
		c0-9.659,6.702-16.776,16.176-16.776c4.482,0,8.504,1.756,11.367,4.667c0.185,0.137,0.185,0.414,0,0.554l-3.651,3.651
		c-0.185,0.14-0.462,0.14-0.648,0c-1.849-1.801-4.344-2.957-7.071-2.957c-6.194,0-9.936,4.761-9.936,10.861
		C209.86,75.56,214.296,79.582,219.796,79.582z M259.265,85.082h-5.732c-0.137,0-0.323-0.092-0.369-0.231l-1.341-3.422h-10.49
		l-1.247,3.42c-0.046,0.137-0.231,0.231-0.417,0.231h-5.684c-0.369,0-0.554-0.231-0.417-0.508l12.617-32.535
		c0.137-0.323,0.694-0.323,0.831,0l12.617,32.535C259.773,84.851,259.588,85.082,259.265,85.082z M268.831,85.082h-5.221
		c-0.277,0-0.462-0.185-0.462-0.369V53.103c0-0.185,0.185-0.369,0.462-0.369h5.221c7.81,0,18.763,1.847,18.763,16.082
		C287.593,82.539,276.826,85.082,268.831,85.082z M315.553,58.23c0,0.185-0.185,0.369-0.462,0.369h-15.251v7.487h12.617
		c0.277,0,0.417,0.185,0.417,0.371v5.036c0,0.185-0.14,0.371-0.417,0.371h-12.617v7.393h15.251c0.277,0,0.462,0.185,0.462,0.369
		v5.084c0,0.185-0.185,0.369-0.462,0.369h-20.935c-0.231,0-0.417-0.185-0.417-0.369V53.098c0-0.185,0.185-0.369,0.417-0.369h20.935
		c0.277,0,0.462,0.185,0.462,0.369V58.23z M355.853,84.711c0,0.185-0.185,0.369-0.462,0.369h-5.223
		c-0.277,0-0.462-0.185-0.462-0.369V66.503l-8.133,17.099c-0.046,0.092-0.277,0.231-0.417,0.231h-4.944
		c-0.137,0-0.323-0.137-0.369-0.231l-8.735-17.469v18.577c0,0.185-0.185,0.369-0.462,0.369h-5.223c-0.277,0-0.462-0.185-0.462-0.369
		V53.098c0-0.185,0.185-0.369,0.462-0.369h5.315c0.137,0,0.369,0.137,0.417,0.231l11.507,23.801l10.999-23.801
		c0.046-0.092,0.277-0.231,0.417-0.231h5.315c0.277,0,0.462,0.185,0.462,0.369L355.853,84.711L355.853,84.711z M369.396,84.711
		c0,0.185-0.185,0.369-0.462,0.369h-5.221c-0.277,0-0.462-0.185-0.462-0.369V53.101c0-0.185,0.185-0.369,0.462-0.369h5.221
		c0.277,0,0.462,0.185,0.462,0.369V84.711z M398.695,85.082h-5.732c-0.137,0-0.323-0.092-0.369-0.231l-1.341-3.42h-10.49
		l-1.248,3.42c-0.046,0.137-0.231,0.231-0.417,0.231h-5.684c-0.369,0-0.554-0.231-0.417-0.508l12.617-32.535
		c0.137-0.323,0.694-0.323,0.831,0l12.617,32.535C399.203,84.851,399.018,85.082,398.695,85.082z"/>
</g>
<g>
	<path fill="#414141" d="M782.116,71.706h-5.06v7.956h5.06c2.161,0,5.55-0.639,5.55-3.88
		C787.667,71.706,783.196,71.706,782.116,71.706z"/>
	<path fill="#414141" d="M787.174,61.637c0-4.076-5.06-3.78-5.06-3.78h-5.06v7.858h5.06
		C783.05,65.713,787.174,65.371,787.174,61.637z"/>
	<polygon fill="#414141" points="749.5,76.275 756.425,76.275 752.987,65.96 	"/>
	<path fill="#414141" d="M765.087,38.785H621.171v88.053L765.22,95.531l152.197,31.89V38.787L765.087,38.785L765.087,38.785z
		 M736.729,85.558c0,0.196-0.196,0.393-0.491,0.393h-17.879c-0.294,0-0.491-0.194-0.491-0.393V51.96
		c0-0.196,0.196-0.393,0.491-0.393h5.55c0.294,0,0.491,0.196,0.491,0.393v27.654h11.838c0.294,0,0.491,0.194,0.491,0.393V85.558z
		 M766.446,85.95h-6.091c-0.148,0-0.345-0.098-0.393-0.244l-1.424-3.633h-11.149l-1.326,3.633c-0.048,0.146-0.244,0.244-0.443,0.244
		h-6.041c-0.393,0-0.589-0.244-0.443-0.541l13.411-34.579c0.146-0.345,0.737-0.345,0.883,0l13.408,34.579
		C766.985,85.706,766.791,85.95,766.446,85.95z M794.148,75.979c0,9.531-9.677,9.971-12.034,9.971h-11.101
		c-0.246,0-0.443-0.194-0.443-0.393V51.96c0-0.196,0.196-0.393,0.443-0.393h11.101c0,0,11.592-0.294,11.592,9.725
		c0,3.928-2.161,6.139-4.715,7.169C794.345,70.332,794.148,75.979,794.148,75.979z M809.869,86.443
		c-6.041-0.146-10.807-3.636-10.905-10.117c0-0.196,0.196-0.345,0.491-0.345h5.551c0.246,0,0.491,0.148,0.491,0.345
		c0.098,2.554,2.111,3.782,4.371,3.782c2.307,0,4.371-1.472,4.371-3.88c0-2.554-2.408-4.174-4.371-4.272
		c-0.294,0-2.702,0-5.208-1.13c-3.633-1.719-5.697-5.06-5.697-9.134c0-6.582,5.254-10.56,10.905-10.56
		c5.991,0,10.658,4.028,10.756,9.921c0,0.196-0.196,0.393-0.491,0.393h-5.5c-0.246,0-0.491-0.196-0.491-0.393
		c-0.098-2.456-2.013-3.633-4.272-3.633c-2.408,0-4.371,1.374-4.371,4.275c0,2.504,2.111,4.124,4.371,4.124
		c0.246,0,2.652,0,5.108,1.13c3.734,1.721,5.747,5.256,5.747,9.284C820.723,82.855,815.467,86.443,809.869,86.443z"/>
</g>
<g>
	<path fill="#414141" d="M346.387-348.262h-4.717v7.492h4.717c1.341,0,4.809-0.185,4.809-3.745
		C351.196-348.074,347.36-348.262,346.387-348.262z"/>
	<polygon fill="#414141" points="226.067,-330.875 232.586,-330.875 229.349,-340.585 	"/>
	<path fill="#414141" d="M313.555-348.724c-6.521,0-9.758,5.411-9.758,10.82c0,5.363,3.237,10.726,9.758,10.726
		c6.427,0,9.71-5.363,9.71-10.726C323.267-343.313,319.983-348.724,313.555-348.724z"/>
	<path fill="#414141" d="M287.087-368.619H143.171v88.053l144.049-31.307l152.197,31.89v-88.634h-152.33L287.087-368.619z
		 M214.505-348.262c0,0.188-0.185,0.371-0.462,0.371h-15.26v7.121h12.623c0.277,0,0.417,0.185,0.417,0.371v5.18
		c0,0.183-0.14,0.369-0.417,0.369h-12.623v12.717c0,0.185-0.137,0.369-0.417,0.369h-5.271c-0.231,0-0.414-0.183-0.414-0.369v-31.351
		c0-0.188,0.185-0.371,0.414-0.371h20.948c0.277,0,0.462,0.183,0.462,0.371V-348.262z M242.02-321.768h-5.734
		c-0.137,0-0.323-0.092-0.369-0.231l-1.341-3.422H224.08l-1.25,3.422c-0.046,0.137-0.231,0.231-0.417,0.231h-5.688
		c-0.369,0-0.554-0.231-0.417-0.508l12.623-32.553c0.137-0.323,0.694-0.323,0.833,0l12.623,32.553
		C242.526-321.997,242.343-321.768,242.02-321.768z M261.025-327.268c2.728,0,5.226-1.11,7.075-2.96c0.185-0.14,0.462-0.14,0.648,0
		l3.653,3.699c0.185,0.137,0.185,0.417,0,0.556c-2.866,2.868-6.89,4.672-11.374,4.672c-8.879,0-16.185-6.427-16.185-16.508
		c0-9.664,6.704-16.785,16.185-16.785c4.484,0,8.508,1.758,11.374,4.672c0.185,0.14,0.185,0.414,0,0.556l-3.653,3.651
		c-0.185,0.137-0.462,0.137-0.648,0c-1.849-1.804-4.347-2.96-7.075-2.96c-6.196,0-9.941,4.763-9.941,10.868
		C251.084-331.292,255.523-327.268,261.025-327.268z M294.551-348.678c0,0.185-0.185,0.323-0.462,0.323h-6.15v26.219
		c0,0.185-0.14,0.369-0.417,0.369h-5.226c-0.277,0-0.417-0.183-0.417-0.369v-26.219h-6.15c-0.277,0-0.462-0.137-0.462-0.323v-4.809
		c0-0.188,0.185-0.371,0.462-0.371h18.357c0.277,0,0.462,0.183,0.462,0.371v4.809H294.551z M313.555-321.349
		c-10.774,0-16.045-8.368-16.045-16.647c0-8.277,5.271-16.601,16.045-16.601c10.589,0,15.954,8.325,15.954,16.601
		C329.509-329.719,324.144-321.349,313.555-321.349z M357.255-321.768h-5.779c-0.137,0-0.371-0.137-0.417-0.231l-5.919-12.854
		h-3.468v12.717c0,0.185-0.185,0.369-0.462,0.369h-5.271c-0.231,0-0.417-0.183-0.417-0.369v-31.63c0-0.185,0.185-0.369,0.417-0.369
		h10.451c1.849,0,10.959,0.092,10.959,9.618c0,4.949-2.728,7.537-5.965,8.693c2.035,4.578,4.207,9.016,6.242,13.548
		C357.763-321.997,357.578-321.768,357.255-321.768z M389.81-353.535l-11.699,16.649v14.75c0,0.185-0.185,0.369-0.462,0.369h-5.226
		c-0.277,0-0.462-0.183-0.462-0.369v-14.75c-3.838-5.459-7.814-11.19-11.699-16.649c-0.231-0.277-0.046-0.6,0.371-0.6h6.427
		c0.046,0,0.277,0.046,0.323,0.137l7.677,10.959l7.629-10.959c0.046-0.094,0.277-0.137,0.323-0.137h6.427
		C389.856-354.133,390.041-353.81,389.81-353.535z"/>
</g>
<g>
	<path fill="#FFFFFF" d="M-788.433,347.379v-22.143h22.143v22.143H-788.433L-788.433,347.379z M-766.289,325.236v-66.43h44.287
		v22.143h-22.143v44.287H-766.289z M-766.289,413.809v-66.43h22.143v44.287h22.143v22.143H-766.289L-766.289,413.809z"/>
	<path fill="#FFFFFF" d="M-856.258,325.236v-44.287h-22.143v-22.143h44.287v66.43H-856.258L-856.258,325.236z M-878.401,413.809
		v-22.143h22.143v-44.287h22.143v66.43H-878.401z M-834.116,347.379v-22.143h22.143v22.143H-834.116L-834.116,347.379z"/>
</g>
<g>
	<g>
		<path fill="#FFFFFF" d="M-864.214,488.476c-2.397,0.279-3.593,0.426-5.984,0.731c-0.015-3.895-0.02-5.844-0.035-9.741
			c7.512-1.101,15.029-2.054,22.577-2.863c0.015,4.079,0.02,6.12,0.035,10.2c-2.402,0.205-3.602,0.313-6.003,0.545
			c0.051,14.344,0.102,28.688,0.15,43.032c2.398-0.043,3.597-0.063,5.995-0.099c0.015,4.079,0.02,6.12,0.035,10.2
			c-7.524-0.007-15.047-0.008-22.572-0.008c-0.015-3.895-0.02-5.844-0.035-9.741c2.397-0.059,3.594-0.087,5.991-0.139
			c-0.019-5.142-0.039-10.284-0.056-15.425c-7.128,0.418-14.253,0.896-21.373,1.429c0.012,4.853,0.027,9.707,0.039,14.56
			c2.394-0.072,3.593-0.11,5.987-0.175c0.012,3.799,0.019,5.698,0.031,9.497c-7.549,0.007-15.097,0.016-22.647,0.028
			c0-3.514,0-5.269,0-8.786c2.422-0.091,3.634-0.134,6.06-0.218c-0.016-12.78-0.031-25.558-0.044-38.336
			c-2.409,0.428-3.61,0.651-6.015,1.107c0-3.514,0-5.269,0-8.783c7.463-1.645,14.94-3.138,22.461-4.487
			c0.012,3.799,0.019,5.698,0.028,9.497c-2.389,0.348-3.581,0.529-5.964,0.905c0.012,4.69,0.024,9.379,0.036,14.069
			c7.112-0.775,14.231-1.473,21.36-2.088C-864.177,498.413-864.195,493.445-864.214,488.476z"/>
		<path fill="#FFFFFF" d="M-810.549,533.874c-2.671,4.955-7.855,7.894-13.382,7.929c-12.833,0.083-21.159-13.475-21.406-25.018
			c-0.261-12.198,8.64-26.194,21.782-26.699c5.583-0.214,10.442,3.159,12.982,8.013c-0.001-2.819-0.001-4.226-0.004-7.044
			c4.979-0.068,9.957-0.075,14.934-0.02c-0.004,4.23-0.004,6.346-0.008,10.58c-2.093-0.02-3.14-0.027-5.233-0.032
			c-0.001,9.469-0.004,18.939-0.007,28.409c2.088,0.007,3.132,0.011,5.221,0.02c-0.004,4.23-0.004,6.349-0.008,10.579
			c-4.956-0.016-9.913-0.031-14.867-0.044C-810.548,537.876-810.548,536.543-810.549,533.874z M-810.404,515.521
			c-0.008-6.682-5.042-14.893-12.584-14.5c-7.519,0.392-12.542,8.585-12.53,15.46c0.015,6.635,5.269,14.217,12.424,14.37
			C-815.276,531.019-810.396,522.4-810.404,515.521z"/>
		<path fill="#FFFFFF" d="M-751.246,524.733c-2.425,9.212-10.955,17.082-20.689,17.229c-13.542,0.204-21.94-14.322-21.928-26.134
			c0.012-11.058,7.783-26.486,21.045-25.573c4.746,0.327,9.08,2.973,11.923,6.787c0.007-1.845,0.008-2.768,0.015-4.613
			c3.277,0.226,4.912,0.352,8.186,0.624c-0.019,5.3-0.039,10.602-0.056,15.903c-3.553-0.202-5.328-0.295-8.882-0.462
			c-1.164-2.046-2.721-3.784-4.431-5.02c-1.76-1.275-3.821-2.009-5.924-2.092c-7.615-0.301-12.348,7.866-12.36,14.567
			c-0.012,6.848,5.019,14.934,12.515,15.023c4.276,0.051,8.264-2.588,9.99-6.547C-757.601,524.535-755.484,524.595-751.246,524.733z
			"/>
		<path fill="#FFFFFF" d="M-722.64,504.845c-1.707-0.188-2.56-0.279-4.268-0.457c0.011-3.449,0.016-5.173,0.027-8.621
			c6.797,0.871,13.584,1.839,20.346,2.947c-0.001,3.613-0.001,5.419-0.004,9.034c-2.01-0.261-3.014-0.386-5.027-0.631
			c-3.886,3.436-7.688,6.967-11.42,10.572c3.974,4.764,7.997,9.478,12.087,14.144c2.61,0.099,3.916,0.15,6.524,0.257
			c0,3.585,0,5.377,0,8.961c-7.549-0.048-15.097-0.098-22.647-0.142c0.012-3.855,0.019-5.781,0.028-9.636
			c1.401,0.044,2.1,0.067,3.499,0.114c-3.326-4.074-6.602-8.19-9.836-12.336c-0.015,4.009-0.027,8.017-0.04,12.028
			c1.493,0.044,2.24,0.067,3.735,0.111c-0.012,3.882-0.019,5.821-0.031,9.704c-6.227-0.035-12.452-0.071-18.68-0.102
			c0.015-4.043,0.023-6.063,0.036-10.106c2.179,0.051,3.269,0.079,5.447,0.134c0.052-14.213,0.103-28.428,0.154-42.64
			c-2.179-0.242-3.267-0.36-5.447-0.58c0.015-4.043,0.023-6.063,0.036-10.106c4.987,0.596,9.961,1.276,14.926,2.038
			c-0.04,12-0.083,23.998-0.123,35.998C-729.816,511.904-726.263,508.34-722.64,504.845z"/>
	</g>
</g>
<g>
	<path fill="#FFFFFF" d="M-851.201,456.75h-9.97c-0.726,0-1.984,0-1.742-1.45c0.242-1.501,1.45-1.501,2.227-1.501h1.065
		l3.968-23.663h-1.065c-0.726,0-1.984,0-1.742-1.453c0.242-1.5,1.45-1.5,2.227-1.5h9.97c6.436,0,9.387,7.258,8.083,15.001
		C-839.492,449.974-844.862,456.75-851.201,456.75z M-847.669,430.135h-4.645l-3.968,23.663h4.645
		c5.371,0,9.193-5.952,10.113-11.614C-840.557,436.571-842.201,430.135-847.669,430.135z"/>
	<path fill="#FFFFFF" d="M-816.795,456.75h-17.47c-0.676,0-2.033,0-1.79-1.45c0.242-1.501,1.405-1.501,2.758-1.501l2.855-16.937
		c-1.355,0-2.516,0-2.274-1.501c0.242-1.45,1.596-1.45,2.274-1.45h16.453c1.645,0,1.935,0.437,1.694,2.033l-0.388,2.37
		c-0.146,0.871-0.34,2.033-2.033,2.033c-1.645,0-1.45-1.21-1.306-2.033l0.242-1.45h-11.323l-1.113,6.582h6.002
		c0.146-0.92,0.34-2.081,2.033-2.081c1.645,0,1.45,1.21,1.307,2.033l-0.485,3.049c-0.146,0.822-0.34,2.033-1.984,2.033
		c-1.694,0-1.501-1.16-1.355-2.081h-6.002l-1.259,7.404h12.34l0.339-2.033c0.146-0.871,0.339-2.033,2.033-2.033
		c1.645,0,1.45,1.21,1.306,2.033l-0.482,2.953C-814.714,456.361-815.199,456.75-816.795,456.75z"/>
	<path fill="#FFFFFF" d="M-788.245,436.861l-9.291,18.34c-0.92,1.839-1.79,1.839-3.146,1.839c-0.968,0-2.179,0-2.418-1.45
		l-0.434-2.37l-2.758-16.357c-0.92,0-2.227,0-1.984-1.501c0.242-1.45,1.645-1.45,2.373-1.45h3.241c0.774,0,2.129,0,1.887,1.501
		c-0.146,0.822-0.968,1.501-2.033,1.501l2.807,16.453l8.226-16.502c-1.742,0-1.548-1.21-1.501-1.453
		c0.242-1.501,1.596-1.501,2.372-1.501h3.241c0.726,0,2.129,0,1.887,1.45C-786.018,436.861-787.324,436.861-788.245,436.861z"/>
	<path fill="#FFFFFF" d="M-741.031,430.135h-28.001L-773,453.797h2.516c0.774,0,1.935,0,1.694,1.501
		c-0.242,1.45-1.45,1.45-2.179,1.45h-8.371c-0.774,0-1.935,0-1.694-1.501c0.242-1.453,1.45-1.453,2.179-1.453h2.516l3.969-23.663
		h-60.121l0.218-0.968c0.291-1.596,0.726-1.984,2.323-1.984h90.808c1.645,0,1.839,0.483,1.596,1.984l-0.159,0.968L-741.031,430.135z
		"/>
	<path fill="#FFFFFF" d="M-749.82,457.135c-8.759,0-9.485-1.113-7.743-11.808c1.79-10.744,2.953-11.808,11.662-11.808
		c8.71,0,9.435,1.113,7.646,11.808C-739.996,456.021-741.109,457.135-749.82,457.135z M-746.432,436.473
		c-5.71,0-6.436,0.822-7.694,8.517c-1.405,8.42-0.871,9.193,4.791,9.193c5.613,0,6.437-0.822,7.839-9.193
		C-740.239,437.247-740.674,436.473-746.432,436.473z"/>
</g>
<path fill="#FFFFFF" d="M-802.332,227.546L-802.332,227.546l121.227,25.229v142.2c-0.585,4.329-5.9,38.269-31.581,69.717
	c-1.255,1.537-2.594,3.06-4.009,4.566c7.609,1.051,15.2,2.244,22.767,3.574c27.93-36.679,32.359-74.514,32.541-76.166l0.059-0.536
	V236.692l-141.13-29.373l0,0l0.126,0.027V227.546z"/>
<path fill="#FFFFFF" d="M-801.637,573.24v15.033l-0.031,0.007l1.627-0.374c15.922-3.665,31.43-9.601,44.846-17.169
	c6.11-3.447,11.74-7.198,16.763-11.153c-7.365-1.059-14.754-1.935-22.162-2.625C-772.567,563.946-786.736,569.64-801.637,573.24z"/>
<path fill="#FFFFFF" d="M-802.39,525.08L-802.39,525.08c0.02-0.004,0.04-0.011,0.059-0.015l0,0
	C-802.35,525.07-802.37,525.074-802.39,525.08z"/>
<path fill="#E2E4E4" d="M-801.637,573.24c-0.015,0.004-0.028,0.008-0.044,0.011l0,0l0,0c-14.398-3.495-27.213-9.028-38.352-16.528
	c-6.967,0.606-13.92,1.375-20.852,2.311c3.617,3.233,7.428,6.239,11.432,9.009c0.702,0.485,1.406,0.962,2.12,1.433
	c12.816,8.468,27.526,14.635,44.009,18.43l1.027,0.237l0.616,0.142l0.016-0.004l0.031-0.007L-801.637,573.24L-801.637,573.24z"/>
<path fill="#E2E4E4" d="M-881.306,468.377c-1.059-1.21-2.104-2.435-3.126-3.685c-21.543-26.38-28.791-54.84-30.888-65.66
	c-0.039-0.201-0.076-0.394-0.111-0.581c-0.317-1.694-0.499-2.887-0.581-3.49V252.674l28.418-6.282l85.259-18.848v-20.202
	l-0.126-0.027l-83.332,18.419l-49.997,11.054v159.339l0.044,0.402l0.015,0.134c0.15,1.37,3.215,27.579,20.147,57.39
	c0.664,1.168,1.35,2.343,2.057,3.522c1.414,2.358,2.918,4.732,4.514,7.115c1.563,2.33,3.215,4.668,4.959,7.001
	C-896.49,470.446-888.907,469.345-881.306,468.377z"/>
<g>
	<path fill="#E2E4E4" d="M-1024.19-214.479c0,0,0.044,2.037,1.041,3.938c1.223,2.31,3.257,3.439,6.246,3.439
		s5.023-1.132,6.246-3.439c0.996-1.901,1.041-3.938,1.041-3.982v-13.396h-14.572C-1024.19-227.919-1024.19-214.479-1024.19-214.479z
		"/>
	<polygon fill="#E2E4E4" points="-948.837,-210.587 -942.457,-210.587 -945.625,-220.089 	"/>
	<path fill="#E2E4E4" d="M-972.921-245.481h-133.332v81.578l133.456-29.005l141.004,29.545v-82.115h-141.128V-245.481z
		 M-1037.089-202.032c0,0.18-0.182,0.362-0.453,0.362h-5.158c-0.273,0-0.453-0.182-0.453-0.362v-12.535h-11.992v12.535
		c0,0.18-0.182,0.362-0.453,0.362h-5.158c-0.271,0-0.453-0.182-0.453-0.362v-30.955c0-0.182,0.182-0.362,0.453-0.362h5.158
		c0.273,0,0.453,0.18,0.453,0.362v12.491h11.992v-12.491c0-0.182,0.182-0.362,0.453-0.362h5.158c0.271,0,0.453,0.18,0.453,0.362
		V-202.032z M-1003.598-214.479c0,0.317-0.047,3.395-1.584,6.472c-2.216,4.344-6.337,6.787-11.721,6.787
		c-5.385,0-9.549-2.398-11.721-6.787c-1.54-3.077-1.584-6.154-1.584-6.472v-18.51c0-0.182,0.182-0.362,0.408-0.362h25.75
		c0.273,0,0.453,0.18,0.453,0.362v18.51H-1003.598z M-962.281-202.032c0,0.18-0.18,0.362-0.453,0.362h-5.158
		c-0.271,0-0.453-0.182-0.453-0.362v-17.379l-8.056,16.247c-0.044,0.09-0.273,0.226-0.362,0.226h-4.888
		c-0.135,0-0.362-0.135-0.408-0.226l-8.597-16.653v17.785c0,0.18-0.182,0.362-0.453,0.362h-5.205c-0.271,0-0.406-0.182-0.406-0.362
		v-30.999c0-0.182,0.135-0.362,0.406-0.362h5.296c0.135,0,0.362,0.135,0.408,0.226l11.36,23.26l10.86-23.26
		c0.047-0.09,0.273-0.226,0.408-0.226h5.249c0.273,0,0.453,0.182,0.453,0.362V-202.032L-962.281-202.032L-962.281-202.032z
		 M-933.225-201.67h-5.613c-0.135,0-0.317-0.091-0.362-0.226l-1.314-3.35h-10.272l-1.223,3.35c-0.044,0.135-0.226,0.226-0.408,0.226
		h-5.567c-0.362,0-0.544-0.226-0.408-0.497l12.356-31.86c0.135-0.317,0.679-0.317,0.814,0l12.353,31.86
		C-932.728-201.896-932.908-201.67-933.225-201.67z M-902.811-202.032c0,0.18-0.182,0.362-0.453,0.362h-5.205
		c-0.091,0-0.317-0.044-0.362-0.135l-14.572-20.862v20.638c0,0.18-0.182,0.362-0.453,0.362h-5.205c-0.226,0-0.408-0.182-0.408-0.362
		v-30.955c0-0.182,0.182-0.362,0.408-0.362h5.249c0.091,0,0.317,0.044,0.362,0.135l14.616,20.862v-20.636
		c0-0.182,0.182-0.362,0.453-0.362h5.114c0.271,0,0.453,0.18,0.453,0.362L-902.811-202.032L-902.811-202.032z M-886.928-201.219
		c-5.611-0.135-10.046-3.395-10.137-9.367c0-0.182,0.182-0.362,0.453-0.362h5.158c0.226,0,0.453,0.182,0.453,0.362
		c0.091,2.307,1.99,3.483,4.073,3.483c2.172,0,4.073-1.449,4.073-3.618c0-2.398-2.219-3.847-4.073-3.938
		c-0.271,0-2.489,0-4.843-1.085c-3.395-1.584-5.294-4.435-5.294-8.236c0-6.11,4.932-9.82,10.137-9.82
		c5.567,0,9.911,3.756,10.002,9.279c0,0.135-0.182,0.317-0.453,0.317h-5.114c-0.226,0-0.453-0.182-0.453-0.317
		c-0.091-2.307-1.855-3.395-3.982-3.395c-2.216,0-4.073,1.314-4.073,3.938c0,2.354,1.99,3.577,4.073,3.577
		c0.226,0,2.489,0,4.797,1.085c3.44,1.584,5.296,4.797,5.296,8.6C-876.835-204.612-881.723-201.219-886.928-201.219z"/>
</g>
<g>
	<polygon fill="#E2E4E4" points="-823.108,-97.116 -817.073,-97.116 -820.07,-106.108 	"/>
	<polygon fill="#E2E4E4" points="-952.287,-97.116 -946.249,-97.116 -949.246,-106.108 	"/>
	<path fill="#E2E4E4" d="M-928.223-113.343v19.31c3.597,0.171,11.26-0.513,11.26-9.719
		C-916.963-111.672-921.758-113.684-928.223-113.343z"/>
	<polygon fill="#E2E4E4" points="-1006.449,-97.116 -1000.411,-97.116 -1003.408,-106.108 	"/>
	<path fill="#E2E4E4" d="M-911.74-131.572h-133.33v81.578l133.457-29.005l141.004,29.544v-82.115H-911.74V-131.572L-911.74-131.572z
		 M-991.676-88.681h-5.31c-0.127,0-0.299-0.084-0.341-0.214l-1.243-3.168h-9.719l-1.156,3.168c-0.043,0.127-0.214,0.214-0.386,0.214
		h-5.265c-0.341,0-0.513-0.214-0.386-0.47l11.689-30.143c0.127-0.299,0.643-0.299,0.77,0l11.689,30.143
		C-991.206-88.895-991.378-88.681-991.676-88.681z M-974.08-93.776c2.526,0,4.837-1.028,6.551-2.74c0.17-0.127,0.428-0.127,0.6,0
		l3.383,3.424c0.172,0.127,0.172,0.386,0,0.513c-2.655,2.655-6.378,4.324-10.531,4.324c-8.219,0-14.986-5.951-14.986-15.286
		c0-8.949,6.209-15.542,14.986-15.542c4.152,0,7.878,1.627,10.531,4.324c0.172,0.127,0.172,0.384,0,0.513l-3.383,3.383
		c-0.172,0.13-0.428,0.13-0.6,0c-1.714-1.669-4.025-2.74-6.551-2.74c-5.738,0-9.205,4.411-9.205,10.062
		C-983.285-97.501-979.176-93.776-974.08-93.776z M-937.514-88.681h-5.311c-0.127,0-0.299-0.084-0.341-0.214l-1.243-3.171h-9.719
		l-1.156,3.168c-0.043,0.127-0.214,0.214-0.386,0.214h-5.265c-0.341,0-0.513-0.214-0.386-0.47l11.689-30.143
		c0.127-0.299,0.643-0.299,0.77,0l11.689,30.143C-937.044-88.895-937.215-88.681-937.514-88.681z M-928.652-88.681h-4.837
		c-0.257,0-0.428-0.171-0.428-0.341v-29.286c0-0.171,0.172-0.341,0.428-0.341h4.837c7.235,0,17.383,1.711,17.383,14.9
		C-911.269-91.036-921.245-88.681-928.652-88.681z M-885.365-113.557c0,0.171-0.171,0.341-0.428,0.341h-14.13v6.937h11.689
		c0.257,0,0.386,0.171,0.386,0.344v4.665c0,0.171-0.13,0.344-0.386,0.344h-11.689v6.85h14.13c0.257,0,0.428,0.171,0.428,0.341v4.71
		c0,0.171-0.171,0.341-0.428,0.341h-19.395c-0.214,0-0.386-0.171-0.386-0.341v-29.286c0-0.171,0.172-0.341,0.386-0.341h19.395
		c0.257,0,0.428,0.171,0.428,0.341V-113.557z M-848.03-89.024c0,0.171-0.171,0.341-0.428,0.341h-4.839
		c-0.257,0-0.428-0.171-0.428-0.341v-16.87l-7.535,15.841c-0.043,0.084-0.257,0.214-0.386,0.214h-4.581
		c-0.127,0-0.299-0.127-0.341-0.214l-8.092-16.184v17.211c0,0.171-0.172,0.341-0.428,0.341h-4.839c-0.257,0-0.428-0.171-0.428-0.341
		v-29.286c0-0.171,0.171-0.341,0.428-0.341h4.924c0.127,0,0.341,0.127,0.386,0.214l10.661,22.051l10.189-22.051
		c0.043-0.084,0.257-0.214,0.386-0.214h4.924c0.257,0,0.428,0.171,0.428,0.341v29.289H-848.03z M-835.483-89.024
		c0,0.171-0.172,0.341-0.428,0.341h-4.837c-0.257,0-0.428-0.171-0.428-0.341v-29.286c0-0.171,0.172-0.341,0.428-0.341h4.837
		c0.257,0,0.428,0.171,0.428,0.341V-89.024z M-808.339-88.681h-5.31c-0.127,0-0.299-0.084-0.341-0.214l-1.243-3.168h-9.719
		l-1.156,3.168c-0.043,0.127-0.214,0.214-0.386,0.214h-5.265c-0.341,0-0.513-0.214-0.386-0.47l11.689-30.143
		c0.127-0.299,0.643-0.299,0.77,0l11.689,30.143C-807.868-88.895-808.039-88.681-808.339-88.681z"/>
</g>
<g>
	<path fill="#E2E4E4" d="M-788.464,166.522h-4.688v7.372h4.688c2.002,0,5.142-0.592,5.142-3.594
		C-783.321,166.522-787.463,166.522-788.464,166.522z"/>
	<path fill="#E2E4E4" d="M-783.778,157.193c0-3.776-4.688-3.502-4.688-3.502h-4.688v7.281h4.688
		C-787.599,160.969-783.778,160.653-783.778,157.193z"/>
	<polygon fill="#E2E4E4" points="-818.68,170.755 -812.266,170.755 -815.449,161.198 	"/>
	<path fill="#E2E4E4" d="M-804.24,136.022h-133.331V217.6l133.456-29.005l141.004,29.544v-82.115L-804.24,136.022L-804.24,136.022z
		 M-830.513,179.355c0,0.182-0.182,0.364-0.454,0.364h-16.564c-0.273,0-0.454-0.18-0.454-0.364v-31.126
		c0-0.182,0.182-0.364,0.454-0.364h5.142c0.273,0,0.454,0.182,0.454,0.364v25.621h10.967c0.273,0,0.454,0.18,0.454,0.364V179.355z
		 M-802.981,179.719h-5.643c-0.138,0-0.319-0.091-0.364-0.226l-1.319-3.366h-10.33l-1.228,3.366
		c-0.044,0.135-0.226,0.226-0.41,0.226h-5.596c-0.364,0-0.545-0.226-0.41-0.501l12.424-32.035c0.135-0.319,0.683-0.319,0.818,0
		l12.423,32.035C-802.481,179.493-802.662,179.719-802.981,179.719z M-777.316,170.481c0,8.83-8.965,9.238-11.149,9.238h-10.284
		c-0.229,0-0.41-0.18-0.41-0.364v-31.126c0-0.182,0.182-0.364,0.41-0.364h10.284c0,0,10.739-0.273,10.739,9.01
		c0,3.638-2.002,5.687-4.368,6.642C-777.135,165.249-777.316,170.481-777.316,170.481z M-762.752,180.176
		c-5.597-0.135-10.011-3.368-10.102-9.374c0-0.182,0.182-0.319,0.454-0.319h5.142c0.229,0,0.454,0.138,0.454,0.319
		c0.091,2.366,1.956,3.503,4.049,3.503c2.137,0,4.049-1.363,4.049-3.594c0-2.366-2.231-3.867-4.049-3.958
		c-0.273,0-2.504,0-4.825-1.047c-3.366-1.592-5.278-4.688-5.278-8.462c0-6.098,4.868-9.783,10.102-9.783
		c5.55,0,9.874,3.732,9.966,9.192c0,0.182-0.182,0.364-0.454,0.364h-5.095c-0.229,0-0.454-0.182-0.454-0.364
		c-0.091-2.275-1.865-3.366-3.958-3.366c-2.231,0-4.049,1.272-4.049,3.96c0,2.319,1.956,3.821,4.049,3.821
		c0.229,0,2.457,0,4.732,1.047c3.459,1.595,5.324,4.869,5.324,8.601C-752.695,176.851-757.565,180.176-762.752,180.176z"/>
</g>
<g>
	<path fill="#E2E4E4" d="M-750.013,40.974h-4.371v6.941h4.371c1.243,0,4.455-0.171,4.455-3.47
		C-745.558,41.146-749.112,40.974-750.013,40.974z"/>
	<polygon fill="#E2E4E4" points="-861.485,57.082 -855.446,57.082 -858.444,48.086 	"/>
	<path fill="#E2E4E4" d="M-780.431,40.546c-6.042,0-9.04,5.012-9.04,10.023c0,4.968,2.998,9.937,9.04,9.937
		c5.955,0,8.996-4.968,8.996-9.937C-771.434,45.558-774.476,40.546-780.431,40.546z"/>
	<path fill="#E2E4E4" d="M-804.951,22.114h-133.331v81.578l133.456-29.005l141.002,29.545V22.116h-141.127V22.114z M-872.195,40.974
		c0,0.174-0.172,0.344-0.428,0.344h-14.139v6.598h11.696c0.257,0,0.386,0.171,0.386,0.344v4.799c0,0.17-0.13,0.341-0.386,0.341
		h-11.696v11.781c0,0.171-0.127,0.341-0.386,0.341h-4.884c-0.214,0-0.384-0.17-0.384-0.341V36.134c0-0.174,0.171-0.344,0.384-0.344
		h19.407c0.257,0,0.428,0.17,0.428,0.344v4.84H-872.195z M-846.704,65.52h-5.312c-0.127,0-0.299-0.084-0.341-0.214l-1.243-3.171
		h-9.725l-1.158,3.171c-0.043,0.127-0.214,0.214-0.386,0.214h-5.269c-0.341,0-0.513-0.214-0.386-0.47l11.696-30.159
		c0.127-0.299,0.643-0.299,0.773,0l11.696,30.159C-846.236,65.307-846.406,65.52-846.704,65.52z M-829.098,60.423
		c2.528,0,4.841-1.028,6.555-2.741c0.171-0.13,0.428-0.13,0.6,0l3.384,3.427c0.172,0.127,0.172,0.386,0,0.515
		c-2.655,2.657-6.383,4.328-10.537,4.328c-8.226,0-14.995-5.955-14.995-15.294c0-8.953,6.211-15.551,14.995-15.551
		c4.154,0,7.882,1.628,10.537,4.328c0.172,0.13,0.172,0.384,0,0.515l-3.384,3.383c-0.171,0.127-0.428,0.127-0.6,0
		c-1.714-1.671-4.027-2.741-6.555-2.741c-5.741,0-9.209,4.412-9.209,10.069C-838.307,56.695-834.196,60.423-829.098,60.423z
		 M-798.038,40.587c0,0.171-0.172,0.299-0.428,0.299h-5.698v24.291c0,0.171-0.13,0.341-0.386,0.341h-4.841
		c-0.257,0-0.386-0.17-0.386-0.341V40.887h-5.698c-0.257,0-0.428-0.127-0.428-0.299v-4.455c0-0.174,0.172-0.344,0.428-0.344h17.007
		c0.257,0,0.428,0.17,0.428,0.344L-798.038,40.587L-798.038,40.587z M-780.431,65.907c-9.982,0-14.865-7.753-14.865-15.422
		c0-7.668,4.884-15.381,14.865-15.381c9.81,0,14.781,7.712,14.781,15.381S-770.621,65.907-780.431,65.907z M-739.945,65.52h-5.355
		c-0.127,0-0.344-0.127-0.386-0.214l-5.484-11.909h-3.213v11.781c0,0.171-0.171,0.341-0.428,0.341h-4.884
		c-0.214,0-0.386-0.17-0.386-0.341V35.874c0-0.171,0.171-0.341,0.386-0.341h9.683c1.714,0,10.153,0.084,10.153,8.91
		c0,4.585-2.528,6.983-5.526,8.053c1.885,4.241,3.898,8.353,5.782,12.551C-739.475,65.307-739.646,65.52-739.945,65.52z
		 M-709.784,36.088l-10.839,15.425v13.665c0,0.171-0.172,0.341-0.428,0.341h-4.841c-0.257,0-0.428-0.17-0.428-0.341V51.513
		c-3.557-5.058-7.239-10.367-10.839-15.425c-0.214-0.257-0.043-0.556,0.344-0.556h5.955c0.043,0,0.257,0.043,0.299,0.127
		l7.112,10.153l7.068-10.153c0.043-0.087,0.257-0.127,0.299-0.127h5.955C-709.742,35.535-709.57,35.833-709.784,36.088z"/>
</g>
</svg>
